<svg xmlns="http://www.w3.org/2000/svg" viewBox="0 0 780 500" width="780" height="500">
  <rect width="780" height="500" rx="40" fill="#000"/>
  <path d="M234.6 148.5c9.8-12.4 16.4-29.1 14.6-46.2-14.2.6-31.5 9.6-41.8 21.6-9 10.6-17 28-14.8 44.2 15.8 1.2 32-8 42-19.6zm14.4 25.4c-23.2-1.4-43 13.2-54 13.2-11 0-28-12.6-46.2-12.2-23.8.4-45.8 13.8-58 35.2-24.8 43-6.4 106.8 17.6 141.8 12 17.4 26.2 36.6 44.8 36 17.8-.8 24.8-11.6 46.4-11.6 21.6 0 27.8 11.6 46.8 11.2 19.4-.4 31.4-17.4 43.4-34.8 13.6-19.8 19.2-39 19.4-40.2-.4-.2-37.4-14.4-37.8-57-.2-35.8 29.2-52.8 30.6-53.8-16.8-24.8-43-27.6-52-27.8zm167.4-48v246.8h38.2v-84.4h52.8c48.2 0 82.2-33.2 82.2-81.4s-33.2-81-80.8-81H416.4zm38.2 32.8h44c33 0 52 17.6 52 48.4s-19 48.6-52.2 48.6h-43.8V158.7z" fill="#fff"/>
  <text x="580" y="355" font-family="Arial,sans-serif" font-size="100" font-weight="300" fill="#fff">Pay</text>
</svg>