<svg xmlns="http://www.w3.org/2000/svg" viewBox="0 0 780 500" width="780" height="500">
  <rect width="780" height="500" rx="40" fill="#fff"/>
  <g transform="translate(80,100) scale(1.8)">
    <path d="M142.08 73.65a85.3 85.3 0 00-1.25-14.58H73.15v27.55h38.68a33.08 33.08 0 01-14.35 21.7v18.03h23.3c13.57-12.5 21.4-30.92 21.3-52.7z" fill="#4285f4"/>
    <path d="M73.15 135.33c19.37 0 35.63-6.43 47.5-17.38l-23.2-17.98c-6.42 4.3-14.62 6.83-24.3 6.83-18.7 0-34.53-12.62-40.18-29.6H9.08v18.55a71.65 71.65 0 0064.07 39.58z" fill="#34a853"/>
    <path d="M32.97 77.2a43.15 43.15 0 010-27.53V31.12H9.08a71.75 71.75 0 000 64.63z" fill="#fbbc04"/>
    <path d="M73.15 20.07a38.82 38.82 0 0127.48 10.73l20.58-20.58A69.08 69.08 0 0073.15 0 71.65 71.65 0 009.08 31.12l23.9 18.55c5.64-16.98 21.47-29.6 40.17-29.6z" fill="#ea4335"/>
  </g>
  <text x="470" y="320" font-family="Arial,sans-serif" font-size="100" font-weight="500" fill="#5f6368">Pay</text>
</svg>