<svg xmlns="http://www.w3.org/2000/svg" viewBox="0 0 780 500" width="780" height="500">
  <rect width="780" height="500" rx="40" fill="#fff"/>
  <path d="M377.17 169.16h-45.27l-28.32 172.87h45.27zm162.96 3.71c-8.91-3.51-22.94-7.37-40.36-7.37-44.56 0-75.95 23.61-76.2 57.41-.5 24.9 22.43 38.81 39.55 47.11 17.56 8.51 23.47 13.96 23.47 21.56-.24 11.64-14.08 16.96-27.11 16.96-18.08 0-27.72-2.63-42.53-9.14l-5.96-2.86-6.35 39c10.58 4.86 30.16 9.07 50.47 9.31 47.36 0 78.11-23.28 78.46-59.38.24-19.77-11.87-34.83-37.89-47.26-15.78-8.04-25.47-13.39-25.47-21.56.24-7.37 8.21-14.99 25.99-14.99 14.81-.24 25.55 3.17 33.88 6.69l4.06 2.03 6.14-37.64-.15.93z" fill="#003087"/>
  <path d="M612.78 169.16h-34.83c-10.79 0-18.87 3.1-23.6 14.3l-66.74 158.56h47.22s7.74-21.32 9.44-25.97l57.57.07c1.33 6.05 5.47 25.9 5.47 25.9h41.72l-36.38-172.86h.13zm-55.29 111.33c3.72-9.97 17.92-48.35 17.92-48.35-.24.36 3.72-10.03 5.96-16.54l3.06 14.95s8.57 41.2 10.38 49.94H557.5z" fill="#003087"/>
  <path d="M262.94 169.16l-44.12 117.73-4.72-23.98c-8.41-27.94-34-58.24-62.67-73.45l40.46 152.36 47.6-.04 70.85-172.62h-47.4z" fill="#003087"/>
  <path d="M167.91 169.16H97l-.52 3.28c56.42 14.36 93.74 49 109.15 90.63L190.4 184.1c-2.72-10.92-10.58-14.03-20.79-14.38l-1.7-.56z" fill="#f9a533"/>
</svg>