<svg xmlns="http://www.w3.org/2000/svg" viewBox="0 0 780 500" width="780" height="500">
  <rect width="780" height="500" rx="40" fill="#fff"/>
  <path d="M293.2 348.73l33.36-195.76h53.35l-33.38 195.76H293.2zm246.11-191.54c-10.57-3.97-27.16-8.2-47.89-8.2-52.84 0-90.08 26.63-90.33 64.82-.5 28.18 26.59 43.91 46.89 53.3 20.82 9.63 27.82 15.77 27.82 24.38-.24 13.16-16.7 19.18-32.15 19.18-21.44 0-32.87-2.98-50.43-10.33l-7.08-3.22-7.52 44.07c12.55 5.49 35.77 10.25 59.88 10.51 56.16 0 92.61-26.28 93.09-67.11.24-22.37-14.07-39.39-44.94-53.42-18.73-9.08-30.19-15.14-30.19-24.38.24-8.35 9.74-16.94 30.82-16.94 17.55-.24 30.31 3.58 40.18 7.57l4.81 2.3 7.28-42.59h-.24zm138.69-4.46h-41.3c-12.79 0-22.37 3.47-27.94 16.22l-79.1 179.3h55.97s9.17-24.11 11.19-29.36l68.26.08c1.57 6.83 6.49 29.28 6.49 29.28h49.47l-43.14-195.52h.1zM635.64 299c4.41-11.27 21.25-54.67 21.25-54.67-.24.42 4.41-11.39 7.04-18.71l3.63 16.9s10.17 46.57 12.31 56.48h-44.23zm-404.27-191.3L178.35 285.2l-5.37-26.15c-9.97-31.6-40.3-65.84-74.32-82.96l47.97 172.46 56.42-.08 83.94-244.77h-56.4l.18.01z" fill="#1a1f71"/>
  <path d="M131.92 152.96H46.39l-.62 3.7c66.93 16.22 111.19 55.39 129.46 102.4l-18.67-89.88c-3.22-12.34-12.55-15.86-24.64-16.22z" fill="#f9a533"/>
</svg>